<?xml version="1.0" encoding="utf-8"?>
<svg version="1.1"
     xmlns="http://www.w3.org/2000/svg"
     xmlns:xlink="http://www.w3.org/1999/xlink"
     x="0px"
     y="0px"
     viewBox="0 0 57.93 40"
     style="enable-background:new 0 0 57.93 40;"
     xml:space="preserve">
    <style type="text/css">
        .st0 {
            fill: #C6C6C5;
        }

        .st1 {
            fill: #912F46;
        }

        .st2 {
            fill: #FFFFFF;
        }
    </style>
    <path class="st0"
          d="M20,40C8.97,40,0,31.03,0,20S8.97,0,20,0c11.03,0,20,8.97,20,20S31.03,40,20,40z M20,0.97
	C9.51,0.97,0.97,9.51,0.97,20S9.51,39.03,20,39.03c10.49,0,19.03-8.54,19.03-19.03S30.49,0.97,20,0.97z" />
    <g>
        <path class="st0"
              d="M29.57,26.66c0.4-0.61,0.85-1.18,1.29-1.76c0.27-0.36,0.54-0.73,0.81-1.1c0.23-0.3,0.46-0.6,0.68-0.9
		c0.04-0.05,0.06-0.05,0.11-0.02c0.13,0.08,0.26,0.14,0.37,0.24c0.38,0.23,0.77,0.44,1.15,0.67c0.12,0.07,0.15,0.15,0.14,0.27
		c-0.05,0.73-0.06,1.46-0.1,2.18c-0.04,0.6-0.07,1.21-0.1,1.81c-0.02,0.48-0.04,0.96-0.06,1.43c-0.02,0.43-0.03,0.87-0.1,1.3
		c-0.03,0.2-0.12,0.37-0.24,0.53c-0.11,0.13-0.23,0.25-0.34,0.37c-0.36,0.3-0.72,0.59-1.07,0.89c-0.59,0.51-1.19,1.03-1.76,1.57
		c-0.05-0.03-0.04-0.08-0.04-0.13c0-0.64-0.02-1.29,0.02-1.93c0.01-0.11-0.06-0.24,0.03-0.31c0.09-0.06,0.21,0.02,0.32,0.02
		c0.2,0,0.4-0.01,0.6-0.04c0.14-0.02,0.25-0.17,0.24-0.28c-0.03-0.19,0.08-0.36,0.02-0.54c-0.03-0.1,0.02-0.16,0.12-0.13
		c0.21,0.06,0.41,0.01,0.62,0.01c0.27,0,0.4-0.14,0.41-0.42c0.02-0.8-0.04-1.6-0.05-2.4c-0.01-0.64-0.03-1.28-0.05-1.92
		c0-0.06,0.01-0.12-0.05-0.18c-0.13,0.21-0.26,0.41-0.37,0.62c-0.4,0.78-0.86,1.52-1.3,2.28c-0.35,0.62-0.72,1.24-1.08,1.86
		c-0.14,0.24-0.28,0.48-0.41,0.72c-0.18,0.35-0.5,0.49-0.84,0.63c-0.68,0.27-1.37,0.52-1.98,0.95c-0.27,0.19-0.55,0.39-0.77,0.65
		c-0.08,0.09-0.13,0.1-0.2-0.01c-0.28-0.48-0.61-0.92-0.91-1.38c-0.22-0.33-0.43-0.67-0.66-1c-0.38-0.53-0.73-1.08-1.09-1.63
		c-0.42-0.63-0.82-1.26-1.25-1.88c-0.23-0.33-0.43-0.68-0.66-1.01c-0.24-0.34-0.46-0.7-0.71-1.04c-0.09-0.12-0.09-0.22,0.02-0.32
		c0.11-0.1,0.18-0.24,0.27-0.35c0.08-0.09,0.09-0.06,0.14,0.01c0.34,0.41,0.7,0.81,1.1,1.17c0.51,0.47,1.08,0.86,1.69,1.19
		c0.1,0.06,0.2,0.12,0.3,0.18c0.09-0.13,0.07-0.29,0.08-0.43c0.01-0.72,0.01-1.43-0.01-2.15c0-0.03,0-0.07-0.02-0.09
		c0.01-0.49,0-0.97,0.02-1.46c0.01-0.43,0-0.85,0.01-1.28c0.01-0.29-0.02-0.58,0.01-0.87c0.05-0.49-0.07-0.98,0.01-1.46
		c0.04-0.23-0.03-0.46,0.01-0.67c0.05-0.3-0.06-0.6,0.05-0.89c0.01-0.02,0-0.04,0-0.06c-0.08-0.34,0.04-0.68-0.02-1.03
		c-0.02-0.12,0.07-0.22,0.15-0.29c0.64-0.57,1.3-1.13,2.06-1.53c0.4-0.21,0.81-0.41,1.23-0.57c0.47-0.17,0.95-0.32,1.43-0.46
		c0.46-0.13,0.93-0.25,1.41-0.32c0.24-0.03,0.5-0.05,0.74-0.11c0.21-0.05,0.45-0.38,0.44-0.6c0-0.09-0.04-0.18,0.06-0.25
		c0.12-0.09,0.22-0.12,0.34,0.02c0.45,0.52,0.9,1.03,1.36,1.54c0.1,0.11,0.04,0.23,0.03,0.33c-0.09,0.68-0.21,1.36-0.28,2.04
		c-0.07,0.71-0.2,1.42-0.28,2.13c-0.09,0.85-0.22,1.69-0.34,2.53c-0.03,0.22-0.05,0.44-0.07,0.67c-0.14-0.06-0.27-0.04-0.41-0.03
		c-0.35,0.04-0.7,0-1.06,0.01c-0.09,0-0.12-0.05-0.16-0.11c-0.36-0.66-0.73-1.32-1.31-1.83c-0.03-0.03-0.05-0.06-0.09-0.07
		c-0.19-0.1-0.24-0.07-0.29,0.13c-0.07,0.3,0.02,0.59,0.06,0.89c0.09,0.7,0.37,1.33,0.69,1.94c0.17,0.33,0.34,0.66,0.57,0.95
		c0.12,0.14,0.12,0.26,0.02,0.42c-0.51,0.79-0.99,1.59-1.49,2.39c-0.35,0.55-0.7,1.1-1.06,1.67c0.13,0,0.16-0.11,0.25-0.12
		c0.22-0.07,0.34-0.27,0.49-0.43c0.39-0.42,0.73-0.88,1.05-1.36C29.56,26.73,29.57,26.69,29.57,26.66z" />
        <path class="st0"
              d="M7.15,8.21C7.88,7.36,8.7,6.59,9.59,5.89c0.43-0.34,0.87-0.65,1.33-0.95c0.32-0.21,0.65-0.41,0.99-0.58
		c0.51-0.26,1.02-0.52,1.54-0.74c0.54-0.23,1.08-0.46,1.63-0.64c0.41-0.13,0.84-0.25,1.26-0.36c0.28-0.07,0.56-0.13,0.85-0.18
		c0.17-0.03,0.34-0.07,0.51-0.07c0.11,0,0.1,0.05,0.09,0.11c-0.05,0.41,0.01,0.83-0.01,1.24c-0.02,0.36,0,0.73,0,1.09
		c0,0.08-0.01,0.12-0.11,0.14c-0.66,0.13-1.31,0.28-1.94,0.49c-0.77,0.25-1.52,0.57-2.24,0.95c-0.64,0.33-1.24,0.72-1.82,1.14
		c-0.6,0.43-1.16,0.89-1.69,1.4c-0.51,0.49-0.99,1-1.42,1.57c-0.45,0.58-0.88,1.18-1.24,1.82c-0.39,0.71-0.76,1.42-1.04,2.18
		c-0.13,0.36-0.23,0.72-0.36,1.08c-0.03,0.08-0.02,0.12-0.14,0.07c-0.09-0.04-0.22,0.01-0.33,0.02c-0.28-0.05-0.56-0.03-0.83-0.03
		c-0.38,0-0.76-0.03-1.13,0c-0.18,0.01-0.21-0.02-0.15-0.21c0.19-0.63,0.39-1.27,0.63-1.89c0.12-0.31,0.25-0.62,0.38-0.92
		c0.29-0.64,0.63-1.24,0.98-1.84c0.42-0.72,0.9-1.4,1.42-2.06C6.89,8.55,7.04,8.39,7.15,8.21z" />
        <path class="st0"
              d="M7.62,13.06c0.28-0.52,0.59-1.02,0.93-1.51c0.33-0.46,0.68-0.9,1.05-1.33c0.2-0.24,0.42-0.47,0.65-0.69
		c0.42-0.41,0.86-0.81,1.33-1.16c0.49-0.37,1-0.73,1.53-1.05c0.51-0.3,1.04-0.57,1.59-0.82c0.53-0.24,1.07-0.4,1.61-0.59
		c0.44-0.15,0.9-0.22,1.34-0.33c0.08-0.02,0.11-0.01,0.11,0.1c-0.01,0.63-0.01,1.26-0.02,1.9c0,0.16-0.02,0.33-0.01,0.49
		c0.01,0.12-0.09,0.1-0.14,0.12c-0.35,0.11-0.72,0.19-1.07,0.31c-0.62,0.21-1.21,0.48-1.79,0.79c-0.8,0.44-1.54,0.97-2.22,1.57
		c-0.52,0.46-0.99,0.96-1.42,1.51c-0.46,0.6-0.9,1.22-1.27,1.88c-0.25,0.44-0.45,0.91-0.63,1.38c-0.15,0.39-0.3,0.78-0.38,1.19
		C8.78,17,8.68,17.04,8.54,17.01c-0.2-0.05-0.4-0.02-0.6-0.01c-0.37,0.02-0.74-0.01-1.1,0c-0.2,0-0.41,0-0.62,0
		c-0.03-0.21,0.03-0.4,0.08-0.59c0.11-0.05,0.09-0.17,0.12-0.25c0.16-0.61,0.36-1.22,0.61-1.8c0.02-0.05,0.03-0.11,0.06-0.17
		C7.25,13.81,7.46,13.45,7.62,13.06z" />
        <path class="st0"
              d="M11.64,31.61c-0.71-0.4-1.33-0.87-1.78-1.55c-0.31-0.47-0.62-0.94-0.88-1.45c-0.15-0.29-0.3-0.59-0.46-0.87
		c-0.18-0.32-0.41-0.61-0.66-0.89c-0.47-0.53-1.05-0.87-1.71-1.08c-0.31-0.1-0.65-0.07-0.98-0.05c-0.1,0.01-0.21,0.01-0.31,0.02
		c-0.17,0.03-0.23-0.08-0.25-0.22c-0.03-0.19,0.01-0.38,0.02-0.57c0-0.04,0.09,0,0.09-0.07c0.07-0.75,0.58-1.24,1.3-1.35
		c0.37-0.06,0.74-0.1,1.11-0.12c0.08,0,0.12-0.03,0.14-0.12c0.13-0.43,0.32-0.85,0.57-1.23c0.25-0.38,0.58-0.69,1.01-0.84
		c0.47-0.16,0.95-0.12,1.4,0.11c0.17,0.09,0.21,0.27,0.09,0.47c-0.24,0.39-0.39,0.81-0.51,1.25c-0.22,0.83-0.13,1.64,0.19,2.43
		c0.31,0.77,0.8,1.43,1.35,2.04c0.3,0.34,0.62,0.64,0.97,0.93c0.06,0.05,0.08,0.11,0.09,0.18c0.06,0.57-0.07,1.08-0.45,1.52
		c-0.29,0.33-0.4,0.71-0.37,1.15C11.62,31.4,11.69,31.48,11.64,31.61z" />
        <path class="st0"
              d="M20.77,34.81c-0.1-0.44-0.05-0.9-0.1-1.34c-0.06-0.53-0.3-0.96-0.75-1.29c-0.47-0.35-0.78-0.8-0.87-1.42
		c-0.08-0.55-0.11-1.09-0.15-1.64c-0.01-0.17,0.05-0.35,0.09-0.52c0.08-0.31,0.12-0.62,0.16-0.94c0.03-0.27,0-0.54,0.04-0.81
		c0.01-0.04,0.01-0.08,0.04-0.1c0.18-0.18,0.33-0.39,0.47-0.6c0.08-0.11,0.11-0.07,0.17,0.02c0.33,0.52,0.66,1.03,1,1.54
		c0.28,0.43,0.58,0.84,0.85,1.27c0.47,0.73,0.95,1.46,1.43,2.19c0.48,0.73,0.94,1.47,1.43,2.19c0.18,0.26,0.34,0.54,0.52,0.81
		c0.05,0.08,0.03,0.12-0.03,0.18c-0.59,0.52-1.22,0.97-1.93,1.3c-0.42,0.19-0.86,0.34-1.29,0.49c-0.09,0.03-0.17,0.01-0.26-0.06
		c-0.21-0.17-0.4-0.35-0.56-0.58C20.87,35.29,20.85,35.04,20.77,34.81z" />
        <path class="st0"
              d="M17.71,8.8c0,0.75-0.01,1.47-0.01,2.18c0,0.11-0.01,0.2-0.15,0.24c-1.02,0.28-1.93,0.8-2.76,1.46
		c-0.77,0.61-1.44,1.32-1.97,2.16c-0.48,0.76-0.87,1.56-1.14,2.42c-0.11,0.37-0.21,0.74-0.27,1.12c-0.01,0.07-0.03,0.14-0.14,0.1
		c-0.09-0.04-0.19,0-0.29-0.01c-0.42-0.01-0.84,0.03-1.26-0.02c-0.13-0.01-0.26,0.01-0.39,0.03c-0.17,0.02-0.22-0.06-0.19-0.2
		c0.08-0.41,0.16-0.83,0.26-1.24c0.11-0.46,0.27-0.92,0.46-1.35c0.43-1.02,0.96-1.97,1.64-2.85c0.44-0.56,0.93-1.06,1.44-1.54
		c0.3-0.28,0.65-0.5,0.98-0.74c0.49-0.36,1.01-0.68,1.56-0.94c0.36-0.17,0.73-0.3,1.1-0.45C16.96,9.01,17.34,8.96,17.71,8.8z" />
        <path class="st0"
              d="M13.79,19.84c-0.48-0.11-0.98,0.02-1.47-0.07c-0.04-0.01-0.09,0-0.14,0c-0.24,0.03-0.26,0.02-0.24-0.21
		c0.03-0.33,0.04-0.67,0.11-0.99c0.14-0.6,0.27-1.2,0.5-1.78c0.26-0.64,0.6-1.25,0.98-1.82c0.22-0.33,0.47-0.65,0.75-0.94
		c0.32-0.32,0.64-0.63,1-0.9c0.35-0.26,0.72-0.48,1.09-0.7c0.34-0.2,0.71-0.32,1.07-0.48c0.2-0.09,0.23-0.05,0.22,0.17
		c-0.01,0.39-0.02,0.78-0.02,1.17c0,0.32-0.04,0.64,0,0.95c0.01,0.08-0.01,0.12-0.1,0.16c-0.62,0.28-1.17,0.67-1.65,1.13
		c-0.56,0.54-1.02,1.16-1.34,1.88c-0.28,0.62-0.48,1.25-0.59,1.92c-0.02,0.12-0.04,0.23-0.04,0.35
		C13.96,19.82,13.91,19.86,13.79,19.84z" />
        <path class="st0"
              d="M20.92,36.34c-0.69,0.12-1.36,0.18-2.03,0.14c-0.39-0.02-0.78-0.04-1.17-0.1c-0.33-0.06-0.63-0.19-0.95-0.27
		c-0.09-0.02-0.1-0.09-0.1-0.16c-0.01-0.27,0-0.53,0-0.8c0-0.4,0.06-0.81-0.16-1.18c-0.13-0.22-0.27-0.43-0.41-0.65
		c-0.14-0.21-0.17-0.46-0.16-0.7c0.01-0.23,0.2-0.35,0.4-0.43c0.39-0.18,0.76-0.41,1.07-0.69c0.36-0.32,0.72-0.68,0.95-1.13
		c0.01-0.01,0.02-0.02,0.05-0.04c0.04,0.22,0.04,0.43,0.06,0.63c0.06,0.47,0.24,0.87,0.56,1.21c0.17,0.19,0.42,0.28,0.6,0.46
		c0.29,0.3,0.45,0.66,0.55,1.06c0.08,0.33,0.07,0.66,0.05,0.99c-0.03,0.61,0.21,1.13,0.64,1.57C20.87,36.26,20.88,36.29,20.92,36.34
		z" />
        <path class="st0"
              d="M18.42,27.4c0.03,0.96-0.2,1.86-0.73,2.67c-0.21,0.32-0.45,0.6-0.74,0.85c-0.14,0.12-0.3,0.04-0.44,0
		c-0.59-0.16-0.95-0.56-1.14-1.13c-0.09-0.25-0.14-0.52-0.21-0.77c-0.12-0.4-0.39-0.7-0.7-0.95c-0.14-0.11-0.08-0.25-0.08-0.37
		c0-0.09,0.13-0.09,0.2-0.11c0.25-0.06,0.47-0.18,0.69-0.31c0.54-0.31,0.81-0.84,1.1-1.36c0.18-0.31,0.41-0.58,0.76-0.7
		c0.22-0.08,0.44-0.07,0.66-0.05c0.06,0,0.07,0.05,0.09,0.09c0.21,0.53,0.42,1.05,0.48,1.63C18.38,27.05,18.42,27.23,18.42,27.4z" />
        <path class="st0"
              d="M17.64,15.07c0.05,0.15,0,0.27,0,0.39c-0.01,0.7-0.03,1.39-0.02,2.09c0,0.31-0.04,0.57-0.27,0.83
		c-0.38,0.43-0.61,0.97-0.69,1.55c-0.04,0.29-0.09,0.57-0.06,0.86c0.01,0.11-0.05,0.12-0.13,0.11c-0.36-0.06-0.73-0.02-1.09-0.02
		c-0.24,0-0.48-0.07-0.72-0.02c-0.08,0.02-0.06-0.05-0.06-0.09c-0.06-0.71,0.04-1.4,0.21-2.09c0.1-0.41,0.25-0.8,0.44-1.17
		c0.14-0.29,0.36-0.53,0.52-0.8c0.24-0.39,0.58-0.66,0.9-0.96C16.95,15.47,17.31,15.31,17.64,15.07z" />
        <path class="st0"
              d="M17.48,24.53c-0.91,0.01-1.37,0.57-1.74,1.27c-0.16,0.3-0.29,0.62-0.58,0.84c-0.17,0.13-0.36,0.18-0.55,0.26
		c-0.06,0.03-0.11-0.03-0.16-0.06c-0.13-0.08-0.24-0.19-0.4-0.23C14,26.59,14,26.54,14.01,26.46c0.07-0.53,0.08-1.06-0.23-1.53
		c-0.09-0.13-0.22-0.23-0.32-0.36c-0.32-0.42-0.36-1.1,0.02-1.48c0.09-0.09,0.17-0.14,0.3-0.15c0.76-0.05,1.49,0.04,2.2,0.33
		c0.45,0.19,0.82,0.48,1.15,0.84C17.23,24.24,17.34,24.37,17.48,24.53z" />
        <path class="st0"
              d="M16.29,31.42c-0.22,0.2-0.49,0.26-0.72,0.39c-0.46,0.24-0.97,0.32-1.48,0.37c-0.32,0.03-0.64,0.02-0.96-0.07
		c-0.06-0.02-0.11,0-0.17,0c-0.4-0.04-0.5-0.35-0.58-0.65c-0.15-0.52,0.01-0.99,0.26-1.44c0.23-0.43,0.42-0.88,0.35-1.38
		c-0.01-0.11,0.03-0.11,0.12-0.11c0.26,0,0.52,0.01,0.78-0.04c0.18-0.03,0.29,0.09,0.4,0.2c0.35,0.36,0.56,0.78,0.61,1.28
		c0.07,0.71,0.49,1.25,1.2,1.4C16.15,31.37,16.21,31.39,16.29,31.42z" />
        <path class="st0"
              d="M12.46,23.27c0.01,0.29,0.02,0.57,0.1,0.84c0.11,0.35,0.27,0.66,0.54,0.9c0.36,0.34,0.38,0.75,0.31,1.2
		c-0.02,0.16-0.16,0.22-0.21,0.34c-0.08,0.2-0.15,0.4-0.21,0.6c-0.08,0.26-0.09,0.52,0.01,0.78c-1.15-0.26-1.85-1.12-1.89-2.09
		C11.06,24.52,11.58,23.61,12.46,23.27z" />
        <path class="st0"
              d="M11.84,32.56c0.47,0.14,0.92,0.19,1.37,0.23c0.45,0.04,0.9,0.1,1.36-0.04c0.23-0.07,0.49-0.08,0.72-0.16
		c0.06-0.02,0.09,0,0.08,0.08c-0.07,0.39,0.09,0.7,0.34,0.98c0.34,0.36,0.45,0.79,0.36,1.27c-0.04,0.23-0.08,0.45-0.19,0.66
		c-0.06,0.13-0.12,0.14-0.25,0.07c-0.45-0.24-0.89-0.51-1.31-0.8c-0.35-0.24-0.68-0.52-1.01-0.79c-0.53-0.42-0.98-0.91-1.43-1.42
		C11.87,32.63,11.87,32.61,11.84,32.56z" />
        <path class="st0"
              d="M27.07,11.86c0.02-0.1-0.04-0.19-0.07-0.27c-0.06-0.13,0.01-0.16,0.1-0.19c0.5-0.17,1.01-0.32,1.53-0.43
		c0.13-0.03,0.27-0.01,0.4-0.07c0.13-0.06,0.13,0.01,0.12,0.1c-0.01,0.44-0.02,0.88-0.02,1.32c0,0.43-0.05,0.87-0.02,1.3
		c0,0.05,0.01,0.1-0.07,0.11c-0.35,0.05-0.69,0.17-1.04,0.25c-0.09,0.04-0.2,0.02-0.28,0.09c-0.04-0.01-0.04-0.05-0.03-0.08
		c0.01-0.05,0-0.1-0.05-0.12c0-0.02,0-0.05,0-0.07c-0.08-0.5-0.24-0.97-0.39-1.45C27.19,12.19,27.17,12.01,27.07,11.86z" />
        <path class="st0"
              d="M25.04,12.5c0.41-0.31,0.86-0.57,1.32-0.8c0.1-0.05,0.13,0,0.14,0.08c0.09,0.39,0.2,0.77,0.32,1.15
		c0.13,0.39,0.21,0.8,0.34,1.19c0.05,0.14-0.02,0.19-0.11,0.24c-0.23,0.11-0.46,0.22-0.7,0.32c-0.09,0.04-0.14,0.13-0.25,0.14
		c-0.21,0.08-0.21,0.08-0.3-0.13c-0.18-0.4-0.3-0.83-0.49-1.23c-0.09-0.21-0.18-0.41-0.26-0.63C25.01,12.72,24.94,12.61,25.04,12.5z
		" />
        <path class="st0"
              d="M19,22.22c-0.39,0.05-0.77-0.03-1.14,0.02c-0.15,0.02-0.29-0.07-0.44-0.04c-0.08,0.01-0.07-0.1-0.07-0.12
		c-0.07-0.19-0.11-0.4-0.16-0.6c-0.11-0.5-0.05-0.99,0.01-1.49c0.06-0.5,0.33-0.9,0.57-1.32c0.02-0.03,0.09-0.1,0.11,0.03
		c0.06,0.34,0.16,0.67,0.22,1c0.08,0.43,0.27,0.81,0.39,1.22C18.61,21.37,18.8,21.79,19,22.22z" />
        <path class="st0"
              d="M29.7,11.11c-0.04-0.36-0.01-0.35,0.4-0.31c0.21,0.02,0.43-0.03,0.64,0.03c0.11,0.03,0.23,0.05,0.35,0.05
		c0.11,0.01,0.14,0.05,0.13,0.17c-0.08,0.77-0.15,1.53-0.21,2.3c-0.01,0.08-0.05,0.09-0.12,0.1c-0.39,0.02-0.77,0.09-1.15,0.17
		c-0.13,0.03-0.14-0.04-0.13-0.14c-0.02,0.01,0.03-0.03,0.02,0c0,0.01,0.03,0.01,0.03,0.01c0-0.68,0.05-1.35,0.04-2.03
		C29.7,11.34,29.77,11.23,29.7,11.11z" />
        <path class="st0"
              d="M24.01,13.32c0.04,0.03,0.02,0.06,0.03,0.11c0-0.27,0.23-0.34,0.37-0.49c0.08-0.08,0.08,0.03,0.09,0.06
		c0.19,0.48,0.39,0.95,0.58,1.43c0.09,0.23,0.16,0.47,0.28,0.69c0.05,0.09,0.03,0.12-0.06,0.17c-0.46,0.27-0.9,0.58-1.31,0.97
		C24,15.26,24,14.29,24.01,13.32z" />
        <path class="st0"
              d="M33.66,16.48c-0.04-0.32,0.03-0.62-0.01-0.92c-0.02-0.14,0.04-0.3,0.02-0.45c-0.01-0.07,0.09-0.06,0.12-0.07
		c0.32-0.08,0.64-0.16,0.96-0.21c0.07-0.01,0.12-0.04,0.18-0.06c0.07-0.02,0.17-0.13,0.2,0.05c0,0.01,0.01,0.02,0.02,0.02
		c0.06,0,0.08,0.01,0.09,0.08c0.08,0.37,0.18,0.74,0.21,1.13c0.01,0.1,0.01,0.15-0.13,0.17C34.76,16.28,34.21,16.38,33.66,16.48z" />
        <path class="st0"
              d="M34.94,14.17c0.02,0.06-0.02,0.07-0.07,0.08c-0.4,0.04-0.77,0.2-1.16,0.28c-0.06,0.01-0.1,0.01-0.12-0.05
		c-0.1-0.3-0.32-0.53-0.5-0.78c-0.08-0.11-0.11-0.15,0.01-0.24c0.1-0.07,0.16-0.19,0.25-0.29c0.18-0.19,0.36-0.37,0.54-0.55
		c0.04-0.04,0.06-0.07,0.12,0c0.38,0.46,0.68,0.97,0.92,1.51C34.93,14.15,34.93,14.16,34.94,14.17z" />
        <path class="st0"
              d="M31.67,12.08c-0.03-0.18,0.06-0.35,0.07-0.53c0.01-0.14-0.02-0.28,0.05-0.42c0.03-0.06,0.03-0.07,0.09-0.05
		c0.62,0.25,1.18,0.58,1.65,1.05c0.13,0.13-0.05,0.13-0.08,0.19c-0.24,0.23-0.48,0.45-0.7,0.69c-0.11,0.12-0.19,0.11-0.28,0
		c-0.21-0.25-0.46-0.47-0.7-0.7C31.69,12.25,31.75,12.14,31.67,12.08z" />
        <path class="st0"
              d="M7.15,8.21c0.04,0.08-0.03,0.12-0.07,0.17c-0.41,0.49-0.79,1-1.14,1.53c-0.38,0.58-0.73,1.17-1.06,1.79
		c-0.27,0.51-0.53,1.03-0.75,1.57c-0.23,0.56-0.44,1.12-0.6,1.7c-0.05,0.17-0.1,0.35-0.17,0.52c-0.04,0.11,0,0.12,0.09,0.11
		c0.61-0.04,1.21,0.01,1.82,0.01c0.06,0,0.15-0.04,0.18,0.06c-0.02,0-0.03,0-0.05,0c-0.14-0.02-0.28-0.01-0.42,0.02
		c-0.11-0.01-0.22-0.02-0.32-0.02c-0.18-0.03-0.37,0.02-0.55,0c-0.08,0-0.16,0-0.24,0c-0.14-0.01-0.28-0.01-0.42,0.02
		c-0.17,0-0.22-0.07-0.17-0.24c0.19-0.64,0.39-1.28,0.63-1.9c0.35-0.94,0.81-1.81,1.31-2.68c0.44-0.76,0.96-1.48,1.5-2.17
		C6.86,8.52,6.96,8.32,7.15,8.21z" />
        <path class="st0"
              d="M33.18,31.69c0.01-0.06,0.05-0.11,0.09-0.14c0.42-0.34,0.47-0.83,0.5-1.32c0.02-0.24,0.04-0.48,0.05-0.71
		c0-0.3,0.03-0.6,0.03-0.91c0.01-0.55,0.04-1.1,0.07-1.66c0.03-0.59,0.05-1.18,0.08-1.77c0.02-0.38,0.02-0.75,0.07-1.13
		c0.01-0.09-0.02-0.16-0.11-0.22c-0.34-0.19-0.68-0.4-1.02-0.6c-0.04-0.03-0.1-0.04-0.11-0.1c0.25,0.06,0.44,0.23,0.67,0.34
		c0.17,0.09,0.33,0.21,0.51,0.29c0.14,0.06,0.17,0.16,0.16,0.3c-0.02,0.49-0.04,0.99-0.06,1.48c-0.02,0.52-0.05,1.04-0.08,1.56
		c-0.03,0.58-0.06,1.15-0.09,1.73c-0.03,0.48-0.07,0.96-0.07,1.43c0,0.55-0.15,1.02-0.58,1.37C33.25,31.66,33.22,31.69,33.18,31.69z
		" />
        <path class="st0"
              d="M29.57,26.66c0.14,0.04,0.02,0.11,0,0.14c-0.3,0.44-0.63,0.87-0.96,1.28c-0.13,0.16-0.31,0.28-0.43,0.44
		c-0.03,0.04-0.1,0.09-0.17,0.03c0.22-0.25,0.47-0.46,0.67-0.72c0.27-0.35,0.55-0.7,0.79-1.08C29.49,26.7,29.52,26.66,29.57,26.66z" />
        <path class="st0"
              d="M23.89,24.88c0.08,0.21,0.09,0.41,0.07,0.64c-0.02,0.24,0,0.49,0.01,0.74c0,0.41,0.02,0.82-0.03,1.22
		c-0.01,0.05-0.04,0.08-0.1,0.07C23.9,26.66,23.85,25.77,23.89,24.88z" />
        <path class="st0"
              d="M7.12,14.18c-0.01,0.24-0.16,0.42-0.22,0.64c-0.13,0.42-0.3,0.83-0.4,1.26c-0.03,0.11-0.07,0.22-0.1,0.34
		c-0.03,0.1-0.06,0-0.09,0c0.09-0.33,0.17-0.67,0.27-1c0.12-0.38,0.27-0.74,0.4-1.12c0.02-0.05,0.03-0.1,0.09-0.12
		C7.09,14.17,7.1,14.17,7.12,14.18z" />
        <path class="st0"
              d="M25.04,12.5c-0.02,0.27,0.1,0.51,0.22,0.73c0.22,0.4,0.31,0.85,0.5,1.26c0.04,0.09,0.07,0.2,0.1,0.29
		c0.06,0.15,0.16,0,0.23,0.04c-0.22,0.16-0.21,0.15-0.33-0.09c-0.19-0.41-0.31-0.84-0.49-1.24c-0.11-0.26-0.22-0.53-0.32-0.79
		C24.92,12.59,24.91,12.52,25.04,12.5z" />
        <path class="st0"
              d="M29.7,11.11c0.05,0.03,0.06,0.06,0.06,0.13c-0.02,0.55-0.06,1.1-0.03,1.65c0.01,0.23-0.12,0.44-0.03,0.67
		c-0.07,0-0.05-0.06-0.09-0.08C29.63,12.69,29.65,11.9,29.7,11.11z" />
        <path class="st0"
              d="M31.67,12.08c0.04-0.05,0.12-0.1,0.1,0.01c-0.03,0.14,0.05,0.18,0.12,0.27c0.18,0.23,0.44,0.38,0.6,0.63
		c0.08,0.12,0.15,0.11,0.24,0.01c0.19-0.21,0.39-0.4,0.58-0.6c0.04-0.04,0.07-0.08,0.13-0.07c-0.09,0.18-0.27,0.28-0.39,0.42
		c-0.06,0.07-0.14,0.13-0.21,0.2c-0.25,0.26-0.25,0.26-0.49,0c-0.21-0.22-0.43-0.43-0.65-0.64C31.62,12.24,31.64,12.16,31.67,12.08z
		" />
        <path class="st0"
              d="M27.07,11.86c0.17,0.14,0.17,0.37,0.24,0.55c0.14,0.41,0.23,0.84,0.34,1.27c0.01,0.04,0.02,0.09-0.02,0.13
		c-0.11-0.38-0.22-0.77-0.34-1.15C27.2,12.39,27.12,12.13,27.07,11.86z" />
        <path class="st0"
              d="M7.12,14.18c-0.02,0-0.03,0-0.05,0c0.12-0.41,0.34-0.76,0.55-1.12c0.1,0.13-0.04,0.21-0.08,0.29
		C7.39,13.62,7.31,13.93,7.12,14.18z" />
        <path class="st0"
              d="M4.11,15.66c0.18,0,0.37-0.05,0.55,0C4.48,15.66,4.29,15.71,4.11,15.66z" />
        <path class="st0"
              d="M4.98,15.68c0.14-0.04,0.28-0.07,0.42-0.02C5.26,15.67,5.12,15.68,4.98,15.68z" />
        <path class="st0"
              d="M3.45,15.68c0.14-0.05,0.28-0.07,0.42-0.02C3.73,15.66,3.59,15.67,3.45,15.68z" />
        <path class="st0"
              d="M27.7,14.07c0.05-0.17,0.19-0.06,0.28-0.09C27.9,14.04,27.81,14.1,27.7,14.07z" />
        <path class="st0"
              d="M27.63,13.87c0.02-0.01,0.05-0.03,0.07,0c0.02,0.04,0.03,0.09-0.02,0.12C27.66,13.95,27.64,13.91,27.63,13.87z
		" />
        <path class="st0"
              d="M32.48,17.13c0.01,0.26-0.14,0.42-0.4,0.43c-0.24,0.01-0.43-0.16-0.44-0.39c-0.01-0.26,0.13-0.42,0.38-0.44
		C32.3,16.72,32.47,16.86,32.48,17.13z" />
    </g>
    <g>
        <path class="st1"
              d="M23.74,3.4c0.02,0.36,0.04,0.69,0.04,1.02c0,0.33-0.04,0.66-0.05,1c-0.01,0.23,0,0.46,0.01,0.69
		c0,0.36,0.01,0.72,0,1.08c-0.01,0.32-0.03,0.63-0.04,0.95c-0.01,0.27,0,0.54,0,0.81c0,0.26,0.02,0.51,0.01,0.77
		c-0.01,0.35-0.04,0.69-0.05,1.03c-0.01,0.33,0.02,0.66,0.01,0.99c0,0.35-0.03,0.69-0.04,1.04c-0.01,0.3,0,0.61-0.01,0.91
		c-0.01,0.37-0.02,0.73-0.02,1.1c0,0.37,0,0.73,0,1.1c0,0.2,0.01,0.41,0.01,0.61c0,0.21-0.01,0.43-0.02,0.64
		c0,0.32,0.01,0.64,0,0.95c-0.01,0.48-0.05,0.97-0.05,1.45c-0.01,0.47,0.02,0.94,0.01,1.41c-0.01,0.43-0.03,0.86-0.05,1.29
		c-0.01,0.35-0.04,0.7-0.04,1.04c0,0.34,0.02,0.68,0.02,1.01c-0.01,0.8-0.02,1.59-0.04,2.44c-0.25-0.2-0.48-0.38-0.7-0.57
		c-0.72-0.64-1.34-1.39-1.87-2.19c-0.49-0.73-0.89-1.5-1.21-2.32c-0.17-0.45-0.35-0.9-0.47-1.37c-0.18-0.75-0.33-1.51-0.45-2.27
		c-0.09-0.59-0.12-1.19-0.17-1.79c-0.02-0.3-0.01-0.61,0-0.91c0.01-0.74,0.03-1.48,0.04-2.23c0.01-0.57,0.02-1.14,0.03-1.71
		c0.01-0.5,0.03-0.99,0.02-1.49c-0.02-0.76,0.04-1.51,0.04-2.27c0.01-0.59-0.01-1.18,0-1.77c0-0.23,0.03-0.46,0.04-0.68
		c0.01-0.32,0.01-0.65,0.01-0.97c0-0.34-0.01-0.69-0.01-1.03c0-0.04,0.08-0.12,0.12-0.12c0.32-0.03,0.63-0.05,0.95-0.07
		c0.14-0.01,0.28-0.02,0.42-0.02c0.1,0,0.2,0.01,0.3,0.02C20.77,3,21,3,21.23,3.01c0.12,0,0.25,0.01,0.37,0.03
		c0.47,0.06,0.93,0.13,1.4,0.21C23.26,3.28,23.51,3.35,23.74,3.4z" />
        <g>
            <path class="st1"
                  d="M24.87,18.46l-0.01-1.71l0.95-0.01l0.01,1.71L24.87,18.46z M24.94,26.8l-0.06-7.43l0.95-0.01l0.06,7.43
			L24.94,26.8z" />
            <path class="st1"
                  d="M34.33,28.27c-0.67,0.9-1.82,1.39-2.93,1.39c-1.79,0.01-3.29-0.94-3.82-2.7l1-0.01
			c0.49,1.19,1.51,1.86,2.8,1.85c1.67-0.01,2.68-1.13,2.67-2.79l-0.01-0.65l-0.03,0c-0.53,1.04-1.73,1.55-2.85,1.56
			c-2.14,0.02-3.9-1.67-3.91-3.82c-0.02-2.16,1.68-3.95,3.85-3.97c1.17-0.01,2.23,0.51,2.88,1.5l0.03,0l-0.01-1.33l0.95-0.01
			l0.05,6.26C34.99,26.52,34.93,27.45,34.33,28.27z M31.1,19.99c-1.67,0.01-2.92,1.44-2.91,3.08c0.01,1.63,1.29,3.02,2.96,3
			c1.64-0.01,2.93-1.42,2.92-3.05C34.06,21.39,32.77,19.97,31.1,19.99z" />
            <path class="st1"
                  d="M42.36,26.65l-0.03-4.09c-0.01-0.71-0.19-1.53-0.72-2.03c-0.44-0.4-1.02-0.63-1.62-0.62
			c-0.6,0-1.18,0.24-1.61,0.65c-0.51,0.49-0.68,1.3-0.68,1.97l0.03,4.15l-0.95,0.01l-0.06-7.43l0.95-0.01l0.01,0.95l0.03,0
			c0.48-0.76,1.39-1.15,2.27-1.16c2.13-0.02,3.28,1.45,3.3,3.5l0.03,4.09L42.36,26.65z" />
            <path class="st1"
                  d="M52.41,23.21l-6.76,0.05c0.08,1.47,1.45,2.68,2.9,2.66c1.14-0.01,2.25-0.67,2.65-1.77l1-0.01
			c-0.53,1.55-1.99,2.62-3.63,2.64c-2.14,0.02-3.88-1.72-3.9-3.85c-0.02-2.12,1.69-3.92,3.82-3.94c2.17-0.02,3.91,1.8,3.93,3.95
			C52.42,23.03,52.41,23.11,52.41,23.21z M48.51,19.84c-1.48,0.01-2.65,1.11-2.87,2.56l5.8-0.05C51.18,20.91,50,19.83,48.51,19.84z" />
            <path class="st1"
                  d="M55.61,26.72c-1.33,0.01-2.29-0.95-2.3-2.28l0-0.08l0.95-0.01c0.02,0.86,0.43,1.52,1.34,1.51
			c0.84-0.01,1.38-0.49,1.37-1.34c-0.02-1.97-3.46-1.03-3.48-3.52c-0.01-1.22,0.89-2.07,2.1-2.08c1.14-0.01,2.03,0.87,2.04,2.01
			l-0.95,0.01c-0.05-0.64-0.44-1.16-1.12-1.16c-0.64,0.01-1.12,0.48-1.12,1.12c0.01,1.7,3.45,0.79,3.48,3.53
			C57.94,25.86,57.01,26.71,55.61,26.72z" />
        </g>
    </g>
    <circle class="st2"
            cx="31.99"
            cy="17.11"
            r="0.5" />
</svg>