<svg xmlns="http://www.w3.org/2000/svg" viewBox="0 0 1305.92 284.77"><style>.prefix__st12{fill:#232e79}</style><linearGradient id="prefix__SVGID_1_" gradientUnits="userSpaceOnUse" x1="48.087" y1="261.223" x2="175.486" y2="261.223"><stop offset="0" stop-color="#ff4b00"/><stop offset=".187" stop-color="#ff6200"/><stop offset=".368" stop-color="#ff7400"/><stop offset=".491" stop-color="#ff8d00"/><stop offset=".656" stop-color="#ffa800"/><stop offset=".802" stop-color="#ffb800"/><stop offset=".914" stop-color="#ffbe00"/></linearGradient><path d="M174.1 247.13l-.82-1.73c-3.05-6.43-10.14-9.44-15.84-6.74 0 0-31.98 14.99-38.95 17.73-43.79 17.22-66.57 14.28-65.47-3.26.05-.75.14-1.52.26-2.31h-5.19c.01.92.05 1.86.14 2.83 2.59 27.79 40.81 36.67 78.52 27.8 23.11-5.43 42.55-17.16 42.55-17.16 5.7-2.68 7.85-10.73 4.8-17.16z" fill="url(#prefix__SVGID_1_)"/><linearGradient id="prefix__SVGID_2_" gradientUnits="userSpaceOnUse" x1="55.323" y1="265.251" x2="172.875" y2="265.251"><stop offset="0" stop-color="#ff7b20"/><stop offset=".139" stop-color="#ff882a"/><stop offset=".368" stop-color="#ff9a37"/><stop offset=".459" stop-color="#ffac54"/><stop offset=".593" stop-color="#ffc37a"/><stop offset=".719" stop-color="#ffd395"/><stop offset=".829" stop-color="#ffdda5"/><stop offset=".914" stop-color="#ffe1ab"/></linearGradient><path d="M55.54 266.09c8.47 11.63 26.7 16.08 43.63 16.08 8.77 0 17.85-1.09 26.98-3.24 22.42-5.27 41.61-16.73 41.8-16.85l.11-.07.12-.06c2.02-.96 3.58-2.97 4.28-5.53.73-2.64.48-5.58-.69-8.09-3.81 1.68-27.38 12.04-48.21 21.11-21.54 9.39-52.13 13.29-68.02-3.35z" fill="url(#prefix__SVGID_2_)"/><linearGradient id="prefix__SVGID_3_" gradientUnits="userSpaceOnUse" x1="-4.056" y1="213.818" x2="209.44" y2="201.043"><stop offset="0" stop-color="#ff0013"/><stop offset=".221" stop-color="#ff3d0a"/><stop offset=".411" stop-color="#ff6c03"/><stop offset=".506" stop-color="#ff7e00"/><stop offset=".53" stop-color="#ff8300"/><stop offset=".679" stop-color="#ff9e00"/><stop offset=".812" stop-color="#ffae00"/><stop offset=".914" stop-color="#ffb400"/></linearGradient><path d="M104.34 203.67c-54.5 28.79-88.03 26.04-94.11 5.64-3.76-12.62 4.63-27.76 20.06-42.24C5.5 184.44-4.55 208.2 1.91 225.3c12.18 32.24 50.99 41.64 116.66 11.57 33.18-15.19 62.19-34.3 62.19-34.3 8.3-5.04 10.95-15.86 5.91-24.16l-1.35-2.23c-5.04-8.3-15.86-10.95-24.16-5.91 0 0-46.62 28.01-56.82 33.4z" fill="url(#prefix__SVGID_3_)"/><linearGradient id="prefix__SVGID_4_" gradientUnits="userSpaceOnUse" x1="-.764" y1="223.367" x2="206.891" y2="210.941"><stop offset=".103" stop-color="#ff0013"/><stop offset=".107" stop-color="#ff0313"/><stop offset=".236" stop-color="#ff4d1e"/><stop offset=".328" stop-color="#ff7c24"/><stop offset=".374" stop-color="#ff8e27"/><stop offset=".495" stop-color="#ffa842"/><stop offset=".645" stop-color="#ffc25d"/><stop offset=".779" stop-color="#ffd26d"/><stop offset=".881" stop-color="#ffd873"/></linearGradient><path d="M99.55 226.58c-46.27 24.26-84.96 13.62-92.56-11.02-1.66-5.39-1.49-12.07.33-19.21-4.87 9.76-6.14 19.64-2.97 28.03 6.95 18.39 22.85 28.11 45.97 28.11 18.48 0 41.08-6.05 67.16-17.99 32.61-14.93 61.55-33.92 61.84-34.11l.08-.05c3.42-2.07 5.83-5.36 6.78-9.24.93-3.82.34-7.77-1.65-11.15-.31.22-.63.43-.96.63.01-.01-52.16 29.29-84.02 46z" fill="url(#prefix__SVGID_4_)"/><g><linearGradient id="prefix__SVGID_5_" gradientUnits="userSpaceOnUse" x1="-262.669" y1="92.534" x2="-135.269" y2="92.534" gradientTransform="scale(-1) rotate(-60.335 -268.85 -125.547)"><stop offset="0" stop-color="#00518d"/><stop offset=".191" stop-color="#0066a5"/><stop offset=".368" stop-color="#0076b7"/><stop offset=".511" stop-color="#0095cc"/><stop offset=".668" stop-color="#00b0df"/><stop offset=".807" stop-color="#00c0ea"/><stop offset=".914" stop-color="#00c6ee"/></linearGradient><path d="M26.17 139.44l1.91.14c7.09.53 13.22-4.14 13.69-10.43 0 0 2.8-35.21 3.87-42.62 6.71-46.57 20.54-64.91 35.23-55.28.63.41 1.25.88 1.88 1.37l2.57-4.51c-.8-.45-1.64-.88-2.53-1.28-25.44-11.5-52.07 17.32-63.03 54.47-6.72 22.77-6.15 45.47-6.15 45.47-.47 6.29 5.46 12.14 12.56 12.67z" fill="url(#prefix__SVGID_5_)"/><linearGradient id="prefix__SVGID_6_" gradientUnits="userSpaceOnUse" x1="-255.433" y1="96.562" x2="-137.881" y2="96.562" gradientTransform="scale(-1) rotate(-60.335 -268.85 -125.547)"><stop offset="0" stop-color="#0073af"/><stop offset=".101" stop-color="#007bb6"/><stop offset=".368" stop-color="#008dc6"/><stop offset=".445" stop-color="#25a0d0"/><stop offset=".556" stop-color="#55b8de"/><stop offset=".663" stop-color="#7bcce8"/><stop offset=".761" stop-color="#96daf0"/><stop offset=".848" stop-color="#a6e2f4"/><stop offset=".914" stop-color="#ace5f6"/></linearGradient><path d="M68.37 27.04C54.07 28.64 41.19 42.28 32.81 57c-4.34 7.62-7.89 16.05-10.54 25.05-6.52 22.09-6.05 44.44-6.05 44.66v.13l-.01.13c-.17 2.23.81 4.58 2.69 6.46 1.94 1.94 4.62 3.18 7.37 3.41.43-4.14 3.09-29.76 5.52-52.34 2.51-23.38 14.26-51.89 36.58-57.46z" fill="url(#prefix__SVGID_6_)"/><linearGradient id="prefix__SVGID_7_" gradientUnits="userSpaceOnUse" x1="-314.811" y1="45.129" x2="-101.316" y2="32.353" gradientTransform="scale(-1) rotate(-60.335 -268.85 -125.547)"><stop offset="0" stop-color="#002e7c"/><stop offset=".3" stop-color="#004f99"/><stop offset=".506" stop-color="#0061a9"/><stop offset=".518" stop-color="#0065ac"/><stop offset=".635" stop-color="#008bc6"/><stop offset=".744" stop-color="#00a6d9"/><stop offset=".84" stop-color="#00b6e4"/><stop offset=".914" stop-color="#00bce8"/></linearGradient><path d="M98.46 100.34c1.96-61.61 20.94-89.38 41.67-84.57 12.82 2.98 21.83 17.76 26.78 38.34-2.82-30.15-18.5-50.64-36.55-53.49-34.04-5.37-61.42 23.7-67.79 95.64-3.22 36.35-.97 71.02-.97 71.02.27 9.71 8.36 17.36 18.07 17.09l2.61-.07c9.71-.27 17.36-8.36 17.09-18.07-.01.01-1.28-54.37-.91-65.89z" fill="url(#prefix__SVGID_7_)"/><linearGradient id="prefix__SVGID_8_" gradientUnits="userSpaceOnUse" x1="-311.52" y1="54.678" x2="-103.865" y2="42.252" gradientTransform="scale(-1) rotate(-60.335 -268.85 -125.547)"><stop offset=".103" stop-color="#003e88"/><stop offset=".278" stop-color="#0068a8"/><stop offset=".374" stop-color="#007ab5"/><stop offset=".382" stop-color="#037cb6"/><stop offset=".501" stop-color="#33a0cc"/><stop offset=".614" stop-color="#59bddd"/><stop offset=".718" stop-color="#74d1e9"/><stop offset=".811" stop-color="#84def0"/><stop offset=".881" stop-color="#8ae2f3"/></linearGradient><path d="M80.92 84.83c1.82-52.21 30.21-80.56 55.39-74.97 5.51 1.22 11.23 4.68 16.53 9.8-6.07-9.06-14.03-15.06-22.89-16.46C110.53.13 94.21 9.14 82.77 29.24 73.62 45.3 67.7 67.93 65.17 96.5c-3.17 35.72-.99 70.27-.97 70.62v.1c.11 4 1.77 7.71 4.68 10.46 2.86 2.7 6.58 4.14 10.51 4.09-.03-.38-.06-.76-.07-1.14 0-.01.35-59.84 1.6-95.8z" fill="url(#prefix__SVGID_8_)"/></g><g><linearGradient id="prefix__SVGID_9_" gradientUnits="userSpaceOnUse" x1="-196.639" y1="275.384" x2="-69.239" y2="275.384" gradientTransform="scale(-1) rotate(60.338 148.207 -8.44)"><stop offset="0" stop-color="#008300"/><stop offset=".191" stop-color="#009b00"/><stop offset=".368" stop-color="#00ad00"/><stop offset=".486" stop-color="#29b720"/><stop offset=".612" stop-color="#4fc13c"/><stop offset=".73" stop-color="#6ac751"/><stop offset=".834" stop-color="#7acc5e"/><stop offset=".914" stop-color="#80cd62"/></linearGradient><path d="M194.47 65.11l-1.1 1.57c-4.07 5.83-3.19 13.48 1.98 17.1 0 0 28.85 20.37 34.69 25.07 36.63 29.53 45.35 50.78 29.57 58.5-.68.33-1.39.63-2.13.92l2.57 4.51c.8-.46 1.59-.96 2.39-1.52 22.86-16 11.67-53.61-14.7-81.99-16.16-17.39-35.97-28.49-35.97-28.49-5.16-3.62-13.22-1.5-17.3 4.33z" fill="url(#prefix__SVGID_9_)"/><linearGradient id="prefix__SVGID_10_" gradientUnits="userSpaceOnUse" x1="-189.403" y1="279.412" x2="-71.851" y2="279.412" gradientTransform="scale(-1) rotate(60.338 148.207 -8.44)"><stop offset="0" stop-color="#00a82c"/><stop offset=".107" stop-color="#20ae36"/><stop offset=".281" stop-color="#4eb644"/><stop offset=".368" stop-color="#60b949"/><stop offset=".432" stop-color="#72c25c"/><stop offset=".575" stop-color="#94d282"/><stop offset=".707" stop-color="#adde9d"/><stop offset=".824" stop-color="#bce5ad"/><stop offset=".914" stop-color="#c1e8b3"/></linearGradient><path d="M269.62 158.76c5.92-13.12.76-31.16-7.62-45.87-4.34-7.62-9.78-14.97-16.16-21.84-15.67-16.87-35.14-27.88-35.33-27.99l-.11-.06-.11-.07c-1.83-1.28-4.35-1.64-6.92-.98-2.66.68-5.09 2.35-6.69 4.6 3.34 2.48 24.02 17.83 42.21 31.45 18.8 14.06 37.33 38.71 30.73 60.76z" fill="url(#prefix__SVGID_10_)"/><linearGradient id="prefix__SVGID_11_" gradientUnits="userSpaceOnUse" x1="-248.781" y1="227.979" x2="-35.285" y2="215.204" gradientTransform="scale(-1) rotate(60.338 148.207 -8.44)"><stop offset="0" stop-color="#007305"/><stop offset=".199" stop-color="#008103"/><stop offset=".506" stop-color="#009300"/><stop offset=".589" stop-color="#26a41d"/><stop offset=".685" stop-color="#4cb43a"/><stop offset=".774" stop-color="#67c04e"/><stop offset=".854" stop-color="#77c75b"/><stop offset=".914" stop-color="#7dca5f"/></linearGradient><path d="M191.23 147.24c51.99 33.11 66.19 63.61 51.47 78.98-9.1 9.51-26.41 9.71-46.63 3.47 27.37 12.95 52.99 9.92 64.65-4.15 21.98-26.54 10.95-64.91-47.68-107.1-29.62-21.32-60.58-37.07-60.58-37.07-8.49-4.72-19.2-1.67-23.92 6.82l-1.27 2.28c-4.72 8.49-1.67 19.2 6.82 23.92 0 .01 47.41 26.66 57.14 32.85z" fill="url(#prefix__SVGID_11_)"/><linearGradient id="prefix__SVGID_12_" gradientUnits="userSpaceOnUse" x1="-245.489" y1="237.528" x2="-37.834" y2="225.102" gradientTransform="scale(-1) rotate(60.338 148.207 -8.44)"><stop offset=".103" stop-color="#007904"/><stop offset=".229" stop-color="#008c11"/><stop offset=".374" stop-color="#009e1e"/><stop offset=".386" stop-color="#07a023"/><stop offset=".484" stop-color="#42b44d"/><stop offset=".58" stop-color="#72c570"/><stop offset=".67" stop-color="#98d18b"/><stop offset=".752" stop-color="#b3da9e"/><stop offset=".825" stop-color="#c3e0aa"/><stop offset=".881" stop-color="#c9e2ae"/></linearGradient><path d="M213.51 140.07c43.98 28.2 53.88 67.08 36.23 85.88-3.86 4.11-9.75 7.27-16.86 9.22 10.89-.59 20.11-4.39 25.83-11.29 12.54-15.14 13.12-33.77 1.68-53.86-9.15-16.06-25.59-32.7-48.87-49.45-29.11-20.95-59.93-36.7-60.24-36.86l-.09-.05c-3.5-1.94-7.54-2.41-11.39-1.31-3.78 1.08-6.92 3.55-8.88 6.95.34.16.68.33 1.02.52 0 0 51.28 30.83 81.57 50.25z" fill="url(#prefix__SVGID_12_)"/></g><g><path class="prefix__st12" d="M418.02 107.53c0 17.67-11.31 27.21-32.98 27.21h-48.29v30.15h-20.73V79.62h69.85c19.43 0 32.15 11.3 32.15 27.91zm-20.5-.12c0-7.3-4.95-11.42-14.02-11.42h-46.76v22.38h46.88c8.72 0 13.9-4.24 13.9-10.96zM518.48 164.89l-20.97-30.15h-39.22v30.15h-20.73V79.62h69.85c19.43 0 32.15 11.31 32.15 27.91 0 13.43-6.6 22.14-19.43 25.68l21.67 31.68h-23.32zm.58-57.95c0-6.48-5.18-10.95-14.02-10.95h-46.76v22.38h46.88c8.84 0 13.9-4.36 13.9-11.43zM566.28 164.89V79.62h92.46v16.37h-71.73v17.43h49.82v16.37h-49.82v18.73h75.03v16.37h-95.76zM728.81 94.1c-17.78 0-26.97 3.42-26.97 8.95 0 2.95 2.48 4.95 7.42 6.13 8.13 2 19.08 1.41 32.27 2.59 26.74 2.47 39.58 8.95 39.58 25.68 0 18.49-17.43 29.45-49.82 29.45-21.32 0-38.99-4.71-55.36-16.02l11.31-13.9c14.6 8.95 29.09 13.19 44.99 13.19 17.19 0 26.85-4.95 26.85-11.9 0-7.54-11.07-7.54-29.21-8.36-33.22-1.41-49.59-8.01-49.59-25.09 0-16.73 16.73-27.32 47.58-27.32 20.85 0 37.69 4.24 50.18 12.48l-11.78 13.66c-12-6.47-24.14-9.54-37.45-9.54zM808.07 164.89V79.62h92.46v16.37H828.8v17.43h49.82v16.37H828.8v18.73h75.03v16.37h-95.76zM1007.58 164.89L949.74 104h-.35v60.89h-20.73V79.62h24.14l57.83 61.01h.47V79.62h20.73v85.27h-24.25zM1153.02 108.94c-9.54-9.42-21.91-15.43-37.22-15.43-21.2 0-35.57 12.01-35.57 28.5 0 16.84 14.6 28.74 37.22 28.74 14.37 0 25.79-5.07 35.81-15.9l17.55 9.42c-14.13 16.14-30.15 22.97-52.41 22.97-15.08 0-27.79-3.42-40.05-10.95-11.42-7.07-18.73-19.91-18.73-34.28 0-12.25 5.06-22.97 14.72-30.98 10.72-8.83 26.03-14.02 43.11-14.02 22.97 0 40.64 8.13 54.42 25.21l-18.85 6.72zM1197.77 164.89V79.62h92.46v16.37h-71.73v17.43h49.82v16.37h-49.82v18.73h75.03v16.37h-95.76z"/></g><g><path class="prefix__st12" d="M360.06 231.57h-3.82l-5.07-9.63H325l-5.15 9.63h-3.83l19.61-37.07h4.92l19.51 37.07zm-10.56-12.8l-11.14-21.05h-.5l-11.2 21.05h22.84zM406.86 200.38c-4.47-2.42-9.61-3.64-15.41-3.64-4.61 0-8.13.62-10.57 1.86-2.44 1.24-3.66 3-3.66 5.28 0 2.25 1.18 3.84 3.53 4.79 2.08.85 5.61 1.38 10.6 1.58 4.27.17 7.15.34 8.65.51 2.73.27 4.92.77 6.56 1.49 3.62 1.57 5.43 4.32 5.43 8.24 0 3.76-1.65 6.68-4.94 8.78-3.3 2.1-8.01 3.15-14.16 3.15-8.33 0-15.12-1.83-20.38-5.48l1.95-2.82c5.39 3.41 11.3 5.12 17.72 5.12 5.12 0 9.05-.76 11.8-2.27s4.12-3.62 4.12-6.3c0-2.52-1.25-4.32-3.74-5.41-2.22-.99-5.99-1.6-11.32-1.84-3.93-.17-6.66-.34-8.19-.51-2.56-.24-4.59-.65-6.09-1.23-3.62-1.37-5.43-3.84-5.43-7.43 0-3.35 1.55-5.97 4.66-7.86 3.11-1.9 7.53-2.84 13.26-2.84 7.75 0 13.74 1.42 17.97 4.25l-2.36 2.58zM463.49 200.38c-4.47-2.42-9.61-3.64-15.41-3.64-4.61 0-8.13.62-10.57 1.86-2.44 1.24-3.66 3-3.66 5.28 0 2.25 1.18 3.84 3.53 4.79 2.08.85 5.61 1.38 10.6 1.58 4.27.17 7.15.34 8.65.51 2.73.27 4.92.77 6.56 1.49 3.62 1.57 5.43 4.32 5.43 8.24 0 3.76-1.65 6.68-4.94 8.78-3.3 2.1-8.01 3.15-14.16 3.15-8.33 0-15.12-1.83-20.38-5.48l1.95-2.82c5.39 3.41 11.3 5.12 17.72 5.12 5.12 0 9.05-.76 11.8-2.27s4.12-3.62 4.12-6.3c0-2.52-1.25-4.32-3.74-5.41-2.22-.99-5.99-1.6-11.32-1.84-3.93-.17-6.66-.34-8.19-.51-2.56-.24-4.59-.65-6.09-1.23-3.62-1.37-5.43-3.84-5.43-7.43 0-3.35 1.55-5.97 4.66-7.86 3.11-1.9 7.53-2.84 13.26-2.84 7.75 0 13.74 1.42 17.97 4.25l-2.36 2.58zM492.73 231.57h-3.33V194.5h3.33v37.07zM547.87 200.38c-4.47-2.42-9.61-3.64-15.41-3.64-4.61 0-8.13.62-10.57 1.86-2.44 1.24-3.66 3-3.66 5.28 0 2.25 1.18 3.84 3.53 4.79 2.08.85 5.61 1.38 10.6 1.58 4.27.17 7.15.34 8.65.51 2.73.27 4.92.77 6.56 1.49 3.62 1.57 5.43 4.32 5.43 8.24 0 3.76-1.65 6.68-4.94 8.78-3.3 2.1-8.01 3.15-14.16 3.15-8.33 0-15.12-1.83-20.38-5.48l1.95-2.82c5.39 3.41 11.3 5.12 17.72 5.12 5.12 0 9.05-.76 11.8-2.27s4.12-3.62 4.12-6.3c0-2.52-1.25-4.32-3.74-5.41-2.22-.99-5.99-1.6-11.32-1.84-3.93-.17-6.66-.34-8.19-.51-2.56-.24-4.59-.65-6.09-1.23-3.62-1.37-5.43-3.84-5.43-7.43 0-3.35 1.55-5.97 4.66-7.86 3.11-1.9 7.53-2.84 13.26-2.84 7.75 0 13.74 1.42 17.97 4.25l-2.36 2.58zM603.12 197.67H585.4v33.9h-3.33v-33.9h-17.72v-3.17h38.76v3.17zM651.77 231.57h-3.82l-5.07-9.63H616.7l-5.15 9.63h-3.83l19.61-37.07h4.92l19.52 37.07zm-10.56-12.8l-11.14-21.05h-.5l-11.2 21.05h22.84zM707.63 231.57h-4.74l-31.26-33.85v33.85h-3.33V194.5h4.82l31.18 33.84V194.5h3.33v37.07zM770.1 201.56l-2.97 1.18c-3.99-4.17-9.4-6.25-16.23-6.25-5.05 0-9.3 1.36-12.75 4.09-4 3.17-5.99 7.29-5.99 12.37 0 4.91 1.73 8.88 5.17 11.91 3.45 3.03 7.97 4.55 13.57 4.55 7.27 0 12.68-2.05 16.23-6.15l2.77 1.79c-3.79 5.02-9.97 7.53-18.54 7.53-4.74 0-8.98-.97-12.7-2.92-3.21-1.71-5.68-4-7.42-6.89-1.74-2.88-2.61-6.17-2.61-9.86 0-5.94 2.29-10.79 6.86-14.54 4.13-3.38 9.27-5.07 15.41-5.07 8.53.02 14.93 2.77 19.2 8.26zM826.84 231.57h-36V194.5h34.56v3.17h-31.23v12.65h21.71v3.17h-21.71v14.9h32.67v3.18zM902.31 197.67h-17.72v33.9h-3.33v-33.9h-17.72v-3.17h38.76v3.17zM958.73 212.98c0 5.97-2.29 10.84-6.86 14.59-4.13 3.38-9.29 5.07-15.46 5.07-6.21 0-11.39-1.69-15.51-5.07-4.58-3.75-6.86-8.62-6.86-14.59 0-5.91 2.31-10.75 6.91-14.54 4.17-3.41 9.32-5.12 15.46-5.12 6.11 0 11.25 1.71 15.41 5.12 4.61 3.79 6.91 8.64 6.91 14.54zm-3.53.03c0-5.08-2.02-9.2-6.04-12.37-3.52-2.76-7.77-4.14-12.75-4.14-5.02 0-9.27 1.38-12.75 4.14-4 3.17-5.99 7.29-5.99 12.37 0 4.94 1.72 8.92 5.15 11.94 3.43 3.02 7.96 4.53 13.59 4.53s10.17-1.52 13.62-4.55c3.45-3.04 5.17-7.02 5.17-11.92zM1018.85 220c0 3.76-1.74 6.78-5.22 9.06-3.55 2.39-8.31 3.58-14.29 3.58-5.94 0-10.69-1.18-14.26-3.53-3.57-2.36-5.35-5.39-5.35-9.11v-25.5h3.33v24.25c0 7.15 5.43 10.72 16.28 10.72 10.79 0 16.18-3.57 16.18-10.72V194.5h3.33V220zM1081.12 231.57h-4.07l-11.48-15.21h-20.25v15.21h-3.33V194.5h27.96c3.41 0 6.13 1 8.14 3 2.01 2 3.02 4.69 3.02 8.06 0 3.18-.97 5.71-2.89 7.6-1.93 1.89-4.69 2.96-8.27 3.2l11.17 15.21zm-11.43-18.39c2.46 0 4.36-.68 5.71-2.04 1.35-1.36 2.02-3.27 2.02-5.75 0-5.15-2.99-7.73-8.96-7.73h-23.14v15.52h24.37zM1105.64 231.57h-3.33V194.5h3.33v37.07zM1160.78 200.38c-4.47-2.42-9.61-3.64-15.41-3.64-4.61 0-8.13.62-10.57 1.86-2.44 1.24-3.66 3-3.66 5.28 0 2.25 1.18 3.84 3.53 4.79 2.08.85 5.61 1.38 10.6 1.58 4.27.17 7.15.34 8.65.51 2.73.27 4.92.77 6.56 1.49 3.62 1.57 5.43 4.32 5.43 8.24 0 3.76-1.65 6.68-4.94 8.78-3.3 2.1-8.01 3.15-14.16 3.15-8.33 0-15.12-1.83-20.38-5.48l1.95-2.82c5.39 3.41 11.3 5.12 17.72 5.12 5.12 0 9.05-.76 11.8-2.27s4.12-3.62 4.12-6.3c0-2.52-1.25-4.32-3.74-5.41-2.22-.99-5.99-1.6-11.32-1.84-3.93-.17-6.66-.34-8.19-.51-2.56-.24-4.59-.65-6.09-1.23-3.62-1.37-5.43-3.84-5.43-7.43 0-3.35 1.55-5.97 4.66-7.86 3.11-1.9 7.53-2.84 13.26-2.84 7.75 0 13.74 1.42 17.97 4.25l-2.36 2.58zM1234.83 231.57h-3.33v-33.85h-.2l-20.53 26.42-20.58-26.42h-.15v33.85h-3.33V194.5h5.19l18.87 24.73 18.96-24.73h5.11v37.07zM1293.97 231.57h-36V194.5h34.56v3.17h-31.23v12.65h21.71v3.17h-21.71v14.9h32.67v3.18z"/></g></svg>